<mxfile host="app.diagrams.net" modified="2023-11-03T18:56:38.881Z" agent="Mozilla/5.0 (Windows NT 10.0; Win64; x64) AppleWebKit/537.36 (KHTML, like Gecko) Chrome/119.0.0.0 Safari/537.36" etag="NLixkY0RYEZUFdBpupiB" version="22.0.8" type="device">
  <diagram id="RX8j35DpNfyJVcPfTA0C" name="Page-1">
    <mxGraphModel dx="882" dy="590" grid="1" gridSize="10" guides="1" tooltips="1" connect="1" arrows="1" fold="1" page="1" pageScale="1" pageWidth="850" pageHeight="1100" math="0" shadow="0">
      <root>
        <mxCell id="0" />
        <mxCell id="1" parent="0" />
        <mxCell id="vfbfAL9CuXn_sHPPWvU1-5" style="edgeStyle=orthogonalEdgeStyle;rounded=0;orthogonalLoop=1;jettySize=auto;html=1;exitX=0.5;exitY=1;exitDx=0;exitDy=0;entryX=0.5;entryY=0;entryDx=0;entryDy=0;" parent="1" source="ehj2s4JNe59QxrL474BH-2" target="ehj2s4JNe59QxrL474BH-3" edge="1">
          <mxGeometry relative="1" as="geometry" />
        </mxCell>
        <mxCell id="tRZn9HF9jJtS-_6O3h12-21" style="edgeStyle=orthogonalEdgeStyle;rounded=0;orthogonalLoop=1;jettySize=auto;html=1;exitX=0.5;exitY=0;exitDx=0;exitDy=0;entryX=0.5;entryY=1;entryDx=0;entryDy=0;" edge="1" parent="1" source="ehj2s4JNe59QxrL474BH-2" target="ehj2s4JNe59QxrL474BH-5">
          <mxGeometry relative="1" as="geometry" />
        </mxCell>
        <mxCell id="ehj2s4JNe59QxrL474BH-2" value="Load balancer" style="rounded=1;whiteSpace=wrap;html=1;" parent="1" vertex="1">
          <mxGeometry x="280" y="240" width="120" height="60" as="geometry" />
        </mxCell>
        <mxCell id="vfbfAL9CuXn_sHPPWvU1-6" style="edgeStyle=orthogonalEdgeStyle;rounded=0;orthogonalLoop=1;jettySize=auto;html=1;exitX=0.5;exitY=0;exitDx=0;exitDy=0;entryX=0.5;entryY=1;entryDx=0;entryDy=0;" parent="1" source="ehj2s4JNe59QxrL474BH-3" target="ehj2s4JNe59QxrL474BH-2" edge="1">
          <mxGeometry relative="1" as="geometry" />
        </mxCell>
        <mxCell id="vfbfAL9CuXn_sHPPWvU1-7" style="edgeStyle=orthogonalEdgeStyle;rounded=0;orthogonalLoop=1;jettySize=auto;html=1;exitX=0.5;exitY=1;exitDx=0;exitDy=0;entryX=0.5;entryY=0;entryDx=0;entryDy=0;" parent="1" source="ehj2s4JNe59QxrL474BH-3" target="ehj2s4JNe59QxrL474BH-7" edge="1">
          <mxGeometry relative="1" as="geometry" />
        </mxCell>
        <mxCell id="tRZn9HF9jJtS-_6O3h12-25" style="edgeStyle=orthogonalEdgeStyle;rounded=0;orthogonalLoop=1;jettySize=auto;html=1;exitX=0;exitY=0.5;exitDx=0;exitDy=0;entryX=1;entryY=0.5;entryDx=0;entryDy=0;" edge="1" parent="1" source="ehj2s4JNe59QxrL474BH-3" target="tRZn9HF9jJtS-_6O3h12-24">
          <mxGeometry relative="1" as="geometry" />
        </mxCell>
        <mxCell id="tRZn9HF9jJtS-_6O3h12-31" style="edgeStyle=orthogonalEdgeStyle;rounded=0;orthogonalLoop=1;jettySize=auto;html=1;exitX=1;exitY=0.5;exitDx=0;exitDy=0;entryX=0;entryY=0.5;entryDx=0;entryDy=0;" edge="1" parent="1" source="ehj2s4JNe59QxrL474BH-3" target="tRZn9HF9jJtS-_6O3h12-30">
          <mxGeometry relative="1" as="geometry" />
        </mxCell>
        <mxCell id="tRZn9HF9jJtS-_6O3h12-49" style="edgeStyle=orthogonalEdgeStyle;rounded=0;orthogonalLoop=1;jettySize=auto;html=1;exitX=0.25;exitY=1;exitDx=0;exitDy=0;entryX=0;entryY=0.5;entryDx=0;entryDy=0;" edge="1" parent="1" source="ehj2s4JNe59QxrL474BH-3" target="tRZn9HF9jJtS-_6O3h12-15">
          <mxGeometry relative="1" as="geometry">
            <Array as="points">
              <mxPoint x="310" y="440" />
              <mxPoint x="240" y="440" />
              <mxPoint x="240" y="870" />
            </Array>
          </mxGeometry>
        </mxCell>
        <mxCell id="ehj2s4JNe59QxrL474BH-3" value="API gateway" style="rounded=1;whiteSpace=wrap;html=1;" parent="1" vertex="1">
          <mxGeometry x="280" y="360" width="120" height="60" as="geometry" />
        </mxCell>
        <mxCell id="tRZn9HF9jJtS-_6O3h12-20" style="edgeStyle=orthogonalEdgeStyle;rounded=0;orthogonalLoop=1;jettySize=auto;html=1;exitX=0.5;exitY=1;exitDx=0;exitDy=0;entryX=0.5;entryY=0;entryDx=0;entryDy=0;" edge="1" parent="1" source="ehj2s4JNe59QxrL474BH-5" target="ehj2s4JNe59QxrL474BH-2">
          <mxGeometry relative="1" as="geometry" />
        </mxCell>
        <mxCell id="ehj2s4JNe59QxrL474BH-5" value="User" style="rounded=1;whiteSpace=wrap;html=1;" parent="1" vertex="1">
          <mxGeometry x="280" y="120" width="120" height="60" as="geometry" />
        </mxCell>
        <mxCell id="vfbfAL9CuXn_sHPPWvU1-33" style="edgeStyle=orthogonalEdgeStyle;rounded=0;orthogonalLoop=1;jettySize=auto;html=1;exitX=0.5;exitY=1;exitDx=0;exitDy=0;entryX=0.5;entryY=0;entryDx=0;entryDy=0;" parent="1" source="ehj2s4JNe59QxrL474BH-7" target="ehj2s4JNe59QxrL474BH-17" edge="1">
          <mxGeometry relative="1" as="geometry" />
        </mxCell>
        <mxCell id="tRZn9HF9jJtS-_6O3h12-29" style="edgeStyle=orthogonalEdgeStyle;rounded=0;orthogonalLoop=1;jettySize=auto;html=1;exitX=0;exitY=0.5;exitDx=0;exitDy=0;entryX=1;entryY=0.5;entryDx=0;entryDy=0;" edge="1" parent="1" source="ehj2s4JNe59QxrL474BH-7" target="tRZn9HF9jJtS-_6O3h12-28">
          <mxGeometry relative="1" as="geometry" />
        </mxCell>
        <mxCell id="ehj2s4JNe59QxrL474BH-7" value="Operations queue" style="rounded=1;whiteSpace=wrap;html=1;" parent="1" vertex="1">
          <mxGeometry x="280" y="480" width="120" height="60" as="geometry" />
        </mxCell>
        <mxCell id="tRZn9HF9jJtS-_6O3h12-16" style="edgeStyle=orthogonalEdgeStyle;rounded=0;orthogonalLoop=1;jettySize=auto;html=1;exitX=0.5;exitY=1;exitDx=0;exitDy=0;" edge="1" parent="1" source="ehj2s4JNe59QxrL474BH-17" target="tRZn9HF9jJtS-_6O3h12-14">
          <mxGeometry relative="1" as="geometry" />
        </mxCell>
        <mxCell id="tRZn9HF9jJtS-_6O3h12-26" style="edgeStyle=orthogonalEdgeStyle;rounded=0;orthogonalLoop=1;jettySize=auto;html=1;exitX=0;exitY=0.5;exitDx=0;exitDy=0;entryX=1;entryY=0.5;entryDx=0;entryDy=0;" edge="1" parent="1" source="ehj2s4JNe59QxrL474BH-17" target="tRZn9HF9jJtS-_6O3h12-23">
          <mxGeometry relative="1" as="geometry" />
        </mxCell>
        <mxCell id="tRZn9HF9jJtS-_6O3h12-37" style="edgeStyle=orthogonalEdgeStyle;rounded=0;orthogonalLoop=1;jettySize=auto;html=1;exitX=1;exitY=0.5;exitDx=0;exitDy=0;entryX=0;entryY=0.5;entryDx=0;entryDy=0;" edge="1" parent="1" source="ehj2s4JNe59QxrL474BH-17" target="tRZn9HF9jJtS-_6O3h12-36">
          <mxGeometry relative="1" as="geometry" />
        </mxCell>
        <mxCell id="tRZn9HF9jJtS-_6O3h12-42" style="edgeStyle=orthogonalEdgeStyle;rounded=0;orthogonalLoop=1;jettySize=auto;html=1;exitX=0.75;exitY=0;exitDx=0;exitDy=0;entryX=0.25;entryY=1;entryDx=0;entryDy=0;" edge="1" parent="1" source="ehj2s4JNe59QxrL474BH-17" target="tRZn9HF9jJtS-_6O3h12-30">
          <mxGeometry relative="1" as="geometry">
            <Array as="points">
              <mxPoint x="370" y="560" />
              <mxPoint x="510" y="560" />
            </Array>
          </mxGeometry>
        </mxCell>
        <mxCell id="ehj2s4JNe59QxrL474BH-17" value="Session server" style="rounded=1;whiteSpace=wrap;html=1;" parent="1" vertex="1">
          <mxGeometry x="280" y="600" width="120" height="60" as="geometry" />
        </mxCell>
        <mxCell id="tRZn9HF9jJtS-_6O3h12-17" style="edgeStyle=orthogonalEdgeStyle;rounded=0;orthogonalLoop=1;jettySize=auto;html=1;exitX=0.5;exitY=0;exitDx=0;exitDy=0;entryX=0.5;entryY=1;entryDx=0;entryDy=0;" edge="1" parent="1" source="tRZn9HF9jJtS-_6O3h12-14" target="ehj2s4JNe59QxrL474BH-17">
          <mxGeometry relative="1" as="geometry" />
        </mxCell>
        <mxCell id="tRZn9HF9jJtS-_6O3h12-18" style="edgeStyle=orthogonalEdgeStyle;rounded=0;orthogonalLoop=1;jettySize=auto;html=1;exitX=0.5;exitY=1;exitDx=0;exitDy=0;entryX=0.5;entryY=0;entryDx=0;entryDy=0;" edge="1" parent="1" source="tRZn9HF9jJtS-_6O3h12-14" target="tRZn9HF9jJtS-_6O3h12-15">
          <mxGeometry relative="1" as="geometry" />
        </mxCell>
        <mxCell id="tRZn9HF9jJtS-_6O3h12-14" value="Redis" style="rounded=1;whiteSpace=wrap;html=1;" vertex="1" parent="1">
          <mxGeometry x="280" y="720" width="120" height="60" as="geometry" />
        </mxCell>
        <mxCell id="tRZn9HF9jJtS-_6O3h12-19" style="edgeStyle=orthogonalEdgeStyle;rounded=0;orthogonalLoop=1;jettySize=auto;html=1;exitX=0.5;exitY=0;exitDx=0;exitDy=0;entryX=0.5;entryY=1;entryDx=0;entryDy=0;" edge="1" parent="1" source="tRZn9HF9jJtS-_6O3h12-15" target="tRZn9HF9jJtS-_6O3h12-14">
          <mxGeometry relative="1" as="geometry" />
        </mxCell>
        <mxCell id="tRZn9HF9jJtS-_6O3h12-35" style="edgeStyle=orthogonalEdgeStyle;rounded=0;orthogonalLoop=1;jettySize=auto;html=1;exitX=1;exitY=0.5;exitDx=0;exitDy=0;entryX=0;entryY=0.5;entryDx=0;entryDy=0;" edge="1" parent="1" source="tRZn9HF9jJtS-_6O3h12-15" target="tRZn9HF9jJtS-_6O3h12-34">
          <mxGeometry relative="1" as="geometry" />
        </mxCell>
        <mxCell id="tRZn9HF9jJtS-_6O3h12-51" style="edgeStyle=orthogonalEdgeStyle;rounded=0;orthogonalLoop=1;jettySize=auto;html=1;exitX=0;exitY=0.5;exitDx=0;exitDy=0;entryX=0.25;entryY=1;entryDx=0;entryDy=0;" edge="1" parent="1" source="tRZn9HF9jJtS-_6O3h12-15" target="ehj2s4JNe59QxrL474BH-3">
          <mxGeometry relative="1" as="geometry">
            <Array as="points">
              <mxPoint x="240" y="870" />
              <mxPoint x="240" y="440" />
              <mxPoint x="310" y="440" />
            </Array>
          </mxGeometry>
        </mxCell>
        <mxCell id="tRZn9HF9jJtS-_6O3h12-15" value="Typeahead service" style="rounded=1;whiteSpace=wrap;html=1;" vertex="1" parent="1">
          <mxGeometry x="280" y="840" width="120" height="60" as="geometry" />
        </mxCell>
        <mxCell id="tRZn9HF9jJtS-_6O3h12-33" style="edgeStyle=orthogonalEdgeStyle;rounded=0;orthogonalLoop=1;jettySize=auto;html=1;exitX=0;exitY=0.5;exitDx=0;exitDy=0;entryX=1;entryY=0.5;entryDx=0;entryDy=0;" edge="1" parent="1" source="tRZn9HF9jJtS-_6O3h12-22" target="ehj2s4JNe59QxrL474BH-5">
          <mxGeometry relative="1" as="geometry" />
        </mxCell>
        <mxCell id="tRZn9HF9jJtS-_6O3h12-22" value="CDN" style="rounded=1;whiteSpace=wrap;html=1;" vertex="1" parent="1">
          <mxGeometry x="480" y="120" width="120" height="60" as="geometry" />
        </mxCell>
        <mxCell id="tRZn9HF9jJtS-_6O3h12-27" style="edgeStyle=orthogonalEdgeStyle;rounded=0;orthogonalLoop=1;jettySize=auto;html=1;exitX=1;exitY=0.5;exitDx=0;exitDy=0;entryX=0;entryY=0.5;entryDx=0;entryDy=0;" edge="1" parent="1" source="tRZn9HF9jJtS-_6O3h12-23" target="ehj2s4JNe59QxrL474BH-17">
          <mxGeometry relative="1" as="geometry" />
        </mxCell>
        <mxCell id="tRZn9HF9jJtS-_6O3h12-23" value="Time series DB" style="rounded=1;whiteSpace=wrap;html=1;" vertex="1" parent="1">
          <mxGeometry x="80" y="600" width="120" height="60" as="geometry" />
        </mxCell>
        <mxCell id="tRZn9HF9jJtS-_6O3h12-24" value="Kafka" style="rounded=1;whiteSpace=wrap;html=1;" vertex="1" parent="1">
          <mxGeometry x="80" y="360" width="120" height="60" as="geometry" />
        </mxCell>
        <mxCell id="tRZn9HF9jJtS-_6O3h12-44" style="edgeStyle=orthogonalEdgeStyle;rounded=0;orthogonalLoop=1;jettySize=auto;html=1;exitX=0.5;exitY=0;exitDx=0;exitDy=0;entryX=0.75;entryY=1;entryDx=0;entryDy=0;" edge="1" parent="1" source="tRZn9HF9jJtS-_6O3h12-28" target="tRZn9HF9jJtS-_6O3h12-30">
          <mxGeometry relative="1" as="geometry" />
        </mxCell>
        <mxCell id="tRZn9HF9jJtS-_6O3h12-28" value="Blob store" style="rounded=1;whiteSpace=wrap;html=1;" vertex="1" parent="1">
          <mxGeometry x="80" y="480" width="120" height="60" as="geometry" />
        </mxCell>
        <mxCell id="tRZn9HF9jJtS-_6O3h12-32" style="edgeStyle=orthogonalEdgeStyle;rounded=0;orthogonalLoop=1;jettySize=auto;html=1;exitX=0.5;exitY=0;exitDx=0;exitDy=0;" edge="1" parent="1" source="tRZn9HF9jJtS-_6O3h12-30" target="tRZn9HF9jJtS-_6O3h12-22">
          <mxGeometry relative="1" as="geometry" />
        </mxCell>
        <mxCell id="tRZn9HF9jJtS-_6O3h12-40" style="edgeStyle=orthogonalEdgeStyle;rounded=0;orthogonalLoop=1;jettySize=auto;html=1;exitX=0.5;exitY=1;exitDx=0;exitDy=0;" edge="1" parent="1" source="tRZn9HF9jJtS-_6O3h12-30">
          <mxGeometry relative="1" as="geometry">
            <mxPoint x="540" y="600" as="targetPoint" />
          </mxGeometry>
        </mxCell>
        <mxCell id="tRZn9HF9jJtS-_6O3h12-43" style="edgeStyle=orthogonalEdgeStyle;rounded=0;orthogonalLoop=1;jettySize=auto;html=1;exitX=0.25;exitY=1;exitDx=0;exitDy=0;entryX=0.75;entryY=0;entryDx=0;entryDy=0;" edge="1" parent="1" source="tRZn9HF9jJtS-_6O3h12-30" target="ehj2s4JNe59QxrL474BH-17">
          <mxGeometry relative="1" as="geometry">
            <Array as="points">
              <mxPoint x="510" y="560" />
              <mxPoint x="370" y="560" />
            </Array>
          </mxGeometry>
        </mxCell>
        <mxCell id="tRZn9HF9jJtS-_6O3h12-48" style="edgeStyle=orthogonalEdgeStyle;rounded=0;orthogonalLoop=1;jettySize=auto;html=1;exitX=1;exitY=0.5;exitDx=0;exitDy=0;entryX=1;entryY=0.5;entryDx=0;entryDy=0;" edge="1" parent="1" source="tRZn9HF9jJtS-_6O3h12-30" target="tRZn9HF9jJtS-_6O3h12-34">
          <mxGeometry relative="1" as="geometry">
            <Array as="points">
              <mxPoint x="640" y="390" />
              <mxPoint x="640" y="870" />
            </Array>
          </mxGeometry>
        </mxCell>
        <mxCell id="tRZn9HF9jJtS-_6O3h12-30" value="App server" style="rounded=1;whiteSpace=wrap;html=1;" vertex="1" parent="1">
          <mxGeometry x="480" y="360" width="120" height="60" as="geometry" />
        </mxCell>
        <mxCell id="tRZn9HF9jJtS-_6O3h12-46" style="edgeStyle=orthogonalEdgeStyle;rounded=0;orthogonalLoop=1;jettySize=auto;html=1;exitX=1;exitY=0.5;exitDx=0;exitDy=0;entryX=1;entryY=0.5;entryDx=0;entryDy=0;" edge="1" parent="1" source="tRZn9HF9jJtS-_6O3h12-34" target="tRZn9HF9jJtS-_6O3h12-30">
          <mxGeometry relative="1" as="geometry">
            <Array as="points">
              <mxPoint x="640" y="870" />
              <mxPoint x="640" y="390" />
            </Array>
          </mxGeometry>
        </mxCell>
        <mxCell id="tRZn9HF9jJtS-_6O3h12-47" style="edgeStyle=orthogonalEdgeStyle;rounded=0;orthogonalLoop=1;jettySize=auto;html=1;exitX=0;exitY=0.5;exitDx=0;exitDy=0;entryX=1;entryY=0.5;entryDx=0;entryDy=0;" edge="1" parent="1" source="tRZn9HF9jJtS-_6O3h12-34" target="tRZn9HF9jJtS-_6O3h12-15">
          <mxGeometry relative="1" as="geometry" />
        </mxCell>
        <mxCell id="tRZn9HF9jJtS-_6O3h12-34" value="NoSQL" style="rounded=1;whiteSpace=wrap;html=1;" vertex="1" parent="1">
          <mxGeometry x="480" y="840" width="120" height="60" as="geometry" />
        </mxCell>
        <mxCell id="tRZn9HF9jJtS-_6O3h12-38" style="edgeStyle=orthogonalEdgeStyle;rounded=0;orthogonalLoop=1;jettySize=auto;html=1;exitX=0;exitY=0.5;exitDx=0;exitDy=0;entryX=1;entryY=0.5;entryDx=0;entryDy=0;" edge="1" parent="1" source="tRZn9HF9jJtS-_6O3h12-36" target="ehj2s4JNe59QxrL474BH-17">
          <mxGeometry relative="1" as="geometry" />
        </mxCell>
        <mxCell id="tRZn9HF9jJtS-_6O3h12-39" style="edgeStyle=orthogonalEdgeStyle;rounded=0;orthogonalLoop=1;jettySize=auto;html=1;exitX=0.5;exitY=0;exitDx=0;exitDy=0;entryX=0.5;entryY=1;entryDx=0;entryDy=0;" edge="1" parent="1" source="tRZn9HF9jJtS-_6O3h12-36" target="tRZn9HF9jJtS-_6O3h12-30">
          <mxGeometry relative="1" as="geometry" />
        </mxCell>
        <mxCell id="tRZn9HF9jJtS-_6O3h12-36" value="RDBMS" style="rounded=1;whiteSpace=wrap;html=1;" vertex="1" parent="1">
          <mxGeometry x="480" y="600" width="120" height="60" as="geometry" />
        </mxCell>
      </root>
    </mxGraphModel>
  </diagram>
</mxfile>
